<?xml version="1.0" encoding="UTF-8"?>
<svg version="1.1" xmlns="http://www.w3.org/2000/svg" width="512" height="512">
<path d="M0 0 C1.50619402 -0.00374186 3.01238609 -0.0083455 4.51857513 -0.01373065 C8.63615973 -0.0259102 12.75366276 -0.02570615 16.87126124 -0.02334189 C21.3206809 -0.02293244 25.77007485 -0.03398523 30.21948242 -0.04345703 C38.9294486 -0.06004101 47.63938769 -0.06556543 56.34936834 -0.06668179 C63.43375168 -0.06763363 70.51812612 -0.07175073 77.60250664 -0.07808304 C97.7108488 -0.09568945 117.81916964 -0.10492301 137.92751957 -0.10342209 C139.55219964 -0.10330222 139.55219964 -0.10330222 141.20970154 -0.10317993 C142.29415225 -0.10309817 143.37860297 -0.10301641 144.49591582 -0.10293217 C162.05985126 -0.10211976 179.62370085 -0.12124776 197.18761147 -0.14945666 C215.2444844 -0.1782272 233.30131552 -0.19199462 251.35821193 -0.19026911 C261.48671434 -0.18960658 271.61512678 -0.19503849 281.74360847 -0.21662521 C290.3693878 -0.23489208 298.99503637 -0.23913942 307.62082673 -0.22560637 C312.01589713 -0.21910401 316.41071711 -0.21885977 320.80576324 -0.23631287 C324.84094474 -0.25217102 328.8756799 -0.24905197 332.91085135 -0.2317446 C334.35903043 -0.22870242 335.8072439 -0.23220012 337.25538237 -0.24346475 C350.54691224 -0.33988387 364.56599869 1.52141202 376.39207458 8.01742554 C377.0465155 8.36249146 377.70095642 8.70755737 378.37522888 9.06307983 C398.31510829 19.84172369 413.17556876 36.45663439 420.3587684 58.00317603 C423.39661451 68.4518726 424.45611597 78.43278048 424.40475464 89.27580261 C424.40893849 90.73595308 424.41442172 92.19610029 424.42107445 93.6562416 C424.43541014 97.62801356 424.43132196 101.59957594 424.42390764 105.5713588 C424.41914852 109.87074754 424.43170995 114.17009271 424.44192505 118.46946716 C424.45906526 126.8767713 424.45996297 135.28400053 424.45471215 143.6913176 C424.45066008 150.52961358 424.45212628 157.36788754 424.4574604 164.20618248 C424.45820883 165.18185521 424.45895725 166.15752794 424.45972835 167.16276651 C424.46125993 169.14526561 424.46279828 171.1277647 424.46434332 173.11026379 C424.47805122 191.67534601 424.47264283 210.24038602 424.4611581 228.80546727 C424.45122878 245.76130004 424.46416426 262.71702363 424.4880923 279.67283956 C424.51251992 297.11511761 424.52208209 314.55734489 424.51543957 331.99963969 C424.51195532 341.77931594 424.5141267 351.5589083 424.5316906 361.33857155 C424.54645852 369.66416058 424.54698837 377.98960662 424.52961969 386.31519298 C424.52114472 390.55636892 424.51887353 394.79728993 424.53427124 399.03845215 C424.63876887 430.06375802 420.90643757 455.66893493 398.76707458 479.07992554 C381.20523793 495.87605623 359.58134621 502.76504524 335.5531311 502.65510559 C334.04348317 502.65928888 332.53383838 502.6647718 331.02419931 502.6714254 C326.91561071 502.68576851 322.8072246 502.68167052 318.69862545 502.67425859 C314.25199667 502.66950135 309.80541012 502.68205926 305.35879517 502.692276 C296.66273011 502.70941983 287.96673745 502.71031317 279.27065989 502.7050631 C272.19781034 502.70101172 265.1249821 502.70247642 258.05213356 502.70781136 C257.04315649 502.70855978 256.03417943 502.7093082 254.9946273 502.7100793 C252.9444842 502.71161088 250.89434111 502.71314922 248.84419803 502.71469427 C229.6438948 502.72840347 210.44363238 502.72299286 191.2433301 502.71150906 C173.70551135 502.70157952 156.16779814 502.71451535 138.62999567 502.73844325 C120.59107144 502.76286806 102.55219631 502.77243374 84.51325589 502.76579052 C74.39823258 502.76230566 64.28329039 502.76448174 54.16827965 502.78204155 C45.55722937 502.79680593 36.94631734 502.79734388 28.33526965 502.77997064 C23.94827749 502.77149282 19.56153184 502.76923165 15.17455292 502.78462219 C11.14692457 502.79857625 7.11975143 502.79357064 3.0921487 502.77438296 C1.64678428 502.77065514 0.20138244 502.77345026 -1.24394832 502.78399461 C-14.52501398 502.87388087 -28.5418134 501.00870849 -40.35792542 494.51742554 C-41.01309143 494.17163452 -41.66825745 493.82584351 -42.34327698 493.46957397 C-58.19123473 484.8965983 -70.50854223 473.14948633 -78.98292542 457.26742554 C-79.70415588 455.92937866 -79.70415588 455.92937866 -80.43995667 454.56430054 C-86.69078152 441.94934283 -88.58767289 428.79601116 -88.49085999 414.85995483 C-88.49548353 413.3808643 -88.50184609 411.90177838 -88.50976896 410.42270184 C-88.52628628 406.40784935 -88.51829739 402.3933829 -88.50582409 398.37853003 C-88.49670282 394.02942793 -88.51077809 389.68038817 -88.52174377 385.33129883 C-88.53945869 376.83099941 -88.53572051 368.33084188 -88.52409321 359.83053708 C-88.51503135 352.91742881 -88.51384675 346.00436008 -88.51818848 339.09124756 C-88.51880141 338.10445564 -88.51941434 337.11766372 -88.52004585 336.10096902 C-88.52132485 334.09583925 -88.5226217 332.0907095 -88.52393621 330.08557975 C-88.53532142 311.31734657 -88.52226069 292.54919174 -88.50073475 273.78097141 C-88.48286565 257.70382576 -88.48597034 241.62679567 -88.50440979 225.5496521 C-88.52585296 206.84505342 -88.53422298 188.14052329 -88.52196074 169.43591404 C-88.52068664 167.43847721 -88.51942916 165.44104037 -88.51818848 163.44360352 C-88.51726282 161.9697331 -88.51726282 161.9697331 -88.51631847 160.46608752 C-88.5128759 153.56744238 -88.51867026 146.668841 -88.52810669 139.77020264 C-88.53936643 131.35423015 -88.53620349 122.93840674 -88.51498371 114.52245116 C-88.50452652 110.23481026 -88.50025953 105.94741723 -88.51358032 101.65977859 C-88.5256218 97.72417481 -88.51875149 93.78904539 -88.49767011 89.8534838 C-88.49325322 88.44050165 -88.49535756 87.02747825 -88.50517327 85.61452329 C-88.58909526 72.51481184 -86.46414718 59.44935127 -80.10792542 47.82992554 C-79.76132874 47.16871704 -79.41473206 46.50750854 -79.05763245 45.82626343 C-76.35407747 40.75008656 -73.44809734 35.86525754 -69.98292542 31.26742554 C-69.54851135 30.6809021 -69.11409729 30.09437866 -68.66651917 29.49008179 C-51.99091302 8.5386792 -25.81568468 -0.06113002 0 0 Z " fill="#7F8080" transform="translate(87.98292541503906,4.732574462890625)"/>
<path d="M0 0 C1.50619402 -0.00374186 3.01238609 -0.0083455 4.51857513 -0.01373065 C8.63615973 -0.0259102 12.75366276 -0.02570615 16.87126124 -0.02334189 C21.3206809 -0.02293244 25.77007485 -0.03398523 30.21948242 -0.04345703 C38.9294486 -0.06004101 47.63938769 -0.06556543 56.34936834 -0.06668179 C63.43375168 -0.06763363 70.51812612 -0.07175073 77.60250664 -0.07808304 C97.7108488 -0.09568945 117.81916964 -0.10492301 137.92751957 -0.10342209 C139.55219964 -0.10330222 139.55219964 -0.10330222 141.20970154 -0.10317993 C142.29415225 -0.10309817 143.37860297 -0.10301641 144.49591582 -0.10293217 C162.05985126 -0.10211976 179.62370085 -0.12124776 197.18761147 -0.14945666 C215.2444844 -0.1782272 233.30131552 -0.19199462 251.35821193 -0.19026911 C261.48671434 -0.18960658 271.61512678 -0.19503849 281.74360847 -0.21662521 C290.3693878 -0.23489208 298.99503637 -0.23913942 307.62082673 -0.22560637 C312.01589713 -0.21910401 316.41071711 -0.21885977 320.80576324 -0.23631287 C324.84094474 -0.25217102 328.8756799 -0.24905197 332.91085135 -0.2317446 C334.35903043 -0.22870242 335.8072439 -0.23220012 337.25538237 -0.24346475 C350.54691224 -0.33988387 364.56599869 1.52141202 376.39207458 8.01742554 C377.0465155 8.36249146 377.70095642 8.70755737 378.37522888 9.06307983 C398.29712504 19.83200272 413.21119416 36.46211247 420.3585844 58.01243401 C423.68383262 69.39970565 424.44109196 79.88898351 424.35765076 91.64584351 C424.3568024 93.34246811 424.35728368 95.03909381 424.35897827 96.73571777 C424.35983153 101.29682573 424.34231546 105.85769223 424.3212564 110.41874456 C424.30237678 115.20196113 424.30073033 119.98518453 424.29718018 124.76843262 C424.28789262 133.80617404 424.26332384 142.84380532 424.23313171 151.88149846 C424.1994847 162.17907232 424.1830759 172.47665172 424.1680454 182.77426696 C424.136771 203.9387144 424.08407517 225.103063 424.01707458 246.26742554 C422.90941868 245.32143812 421.80225611 244.37487304 420.69529724 243.42807007 C420.07869232 242.90101471 419.4620874 242.37395935 418.82679749 241.83093262 C416.30276318 239.65029739 413.84534356 237.40219724 411.39207458 235.14242554 C410.8826532 234.67360962 410.37323181 234.2047937 409.84837341 233.72177124 C408.77566843 232.73413666 407.7034892 231.74593077 406.63182068 230.75717163 C405.04918816 229.29705315 403.46493239 227.83871498 401.88035583 226.38070679 C396.07178053 221.03178999 390.28648222 215.65855981 384.51707458 210.26742554 C378.71779324 204.84876617 372.90989197 199.44010469 367.06004333 194.07601929 C365.10092144 192.27743055 363.17418591 190.45791859 361.25535583 188.61508179 C341.92730013 170.30280711 320.59065059 163.4335854 294.18504333 163.88851929 C286.44270804 164.21675383 280.06885988 165.9695757 273.01707458 169.26742554 C272.06316833 169.69023804 271.10926208 170.11305054 270.12644958 170.54867554 C260.04177514 175.50457269 251.46322336 183.49765295 243.73582458 191.54745483 C241.98927971 193.29524016 240.17542977 194.90660267 238.30223083 196.51742554 C234.19530023 200.08719838 230.22075258 203.77955431 226.26707458 207.51742554 C220.52893122 212.91979458 214.75772049 218.28002468 208.93894958 223.59555054 C205.81063459 226.45620222 202.69341509 229.32854204 199.57957458 232.20492554 C199.0399408 232.70330933 198.50030701 233.20169312 197.94432068 233.71517944 C196.3017443 235.23242063 194.65937292 236.74988339 193.01707458 238.26742554 C184.70037399 245.95235303 176.36999548 253.62186911 168.01707458 261.26742554 C163.35241505 259.85106528 160.64187305 257.17155613 157.39207458 253.70492554 C151.94043213 248.08795399 146.2823873 242.98236975 140.01707458 238.26742554 C139.20367615 237.65254272 138.39027771 237.03765991 137.55223083 236.40414429 C119.69422651 223.99434467 96.85688135 220.32011752 75.59910583 223.88070679 C58.37348538 228.00106068 44.77352212 239.01007799 32.73313904 251.54989624 C30.9976827 253.28683398 29.19582407 254.88655275 27.33348083 256.48617554 C23.03737249 260.22038299 18.8951207 264.09931242 14.76707458 268.01742554 C8.85326575 273.60711958 2.90576335 279.15203756 -3.10401917 284.63851929 C-10.96564581 291.81745379 -18.76838448 299.05954512 -26.54542542 306.32992554 C-32.01309343 311.44102164 -37.5106467 316.51707718 -43.03370667 321.56820679 C-50.91170596 328.77840217 -58.74376779 336.03724456 -66.54542542 343.32992554 C-71.2856922 347.75710969 -76.02850369 352.18143328 -80.79542542 356.57992554 C-81.75062073 357.46293335 -82.70581604 358.34594116 -83.68995667 359.25570679 C-85.98292542 361.26742554 -85.98292542 361.26742554 -87.98292542 362.26742554 C-88.07460473 325.59551148 -88.14502687 288.92361761 -88.18718673 252.25161242 C-88.19218919 247.91606296 -88.19736651 243.58051373 -88.20265198 239.2449646 C-88.20370122 238.38188328 -88.20475046 237.51880197 -88.2058315 236.62956667 C-88.22320738 222.67910989 -88.25472944 208.72871946 -88.2915366 194.77830195 C-88.3290246 180.44967159 -88.35117783 166.12107584 -88.35927939 151.79239845 C-88.36475092 142.9603209 -88.38199316 134.12843093 -88.41459128 125.29641116 C-88.43583636 119.22898959 -88.44210302 113.16166413 -88.43693092 107.09420812 C-88.43438456 103.60053785 -88.4381152 100.10719393 -88.45974731 96.61358261 C-88.550235 79.47084853 -88.55310241 63.26804437 -80.10792542 47.82992554 C-79.76132874 47.16871704 -79.41473206 46.50750854 -79.05763245 45.82626343 C-76.35407747 40.75008656 -73.44809734 35.86525754 -69.98292542 31.26742554 C-69.54851135 30.6809021 -69.11409729 30.09437866 -68.66651917 29.49008179 C-51.99091302 8.5386792 -25.81568468 -0.06113002 0 0 Z " fill="#E9E9E9" transform="translate(87.98292541503906,4.732574462890625)"/>
<path d="M0 0 C1.64488403 0.01027222 1.64488403 0.01027222 3.32299805 0.02075195 C12.39571026 0.19880518 20.29428447 1.46650054 28.875 4.4375 C29.92429687 4.788125 30.97359375 5.13875 32.0546875 5.5 C46.06798948 10.74133892 56.48536743 20.50739775 67.0625 30.70166016 C69.79677031 33.3202838 72.58478296 35.87879882 75.375 38.4375 C80.06012877 42.75119384 84.72236726 47.08879019 89.375 51.4375 C95.63739921 57.28998507 101.92545458 63.11380668 108.22949219 68.92138672 C111.19592547 71.65455447 114.16050035 74.38973534 117.125 77.125 C117.68654785 77.64271973 118.2480957 78.16043945 118.82666016 78.69384766 C123.87085954 83.34748774 123.87085954 83.34748774 124.00922108 86.35542297 C124.0156313 88.33411629 124.0156313 88.33411629 124.02217102 90.3527832 C124.02584771 91.08484954 124.0295244 91.81691587 124.0333125 92.57116604 C124.0443939 95.04354471 124.0482009 97.51588141 124.05200195 99.98828125 C124.05826394 101.75392797 124.0649105 103.51957336 124.07191467 105.28521729 C124.09301326 111.1068021 124.10333187 116.92838731 124.11328125 122.75 C124.11732858 124.75584934 124.12144549 126.76169855 124.12563133 128.76754761 C124.14470655 138.20382719 124.15892489 147.6400989 124.1672433 157.07639408 C124.1769834 167.94550393 124.2032082 178.81440836 124.24374419 189.68344593 C124.27402495 198.09385498 124.28872401 206.50420563 124.29202431 214.91466808 C124.29436394 219.93153672 124.30317946 224.94818654 124.32848549 229.96499634 C124.35197676 234.69940293 124.35591596 239.43345005 124.34572411 244.16790009 C124.34523348 245.89265904 124.3514118 247.61743693 124.36528015 249.3421402 C124.53835708 272.17138671 118.67378273 292.6601984 103.875 310.4375 C102.25191506 311.82355585 100.59821894 313.17810648 98.875 314.4375 C98.4531543 314.04071045 98.03130859 313.6439209 97.59667969 313.23510742 C89.75084151 305.85861469 81.88587718 298.50781254 73.93359375 291.24609375 C70.39037135 288.00193661 66.88336194 284.71925903 63.375 281.4375 C57.88695492 276.3050008 52.36904746 271.20775702 46.82421875 266.13671875 C38.32543634 258.35836293 29.88348903 250.51980327 21.46606445 242.65356445 C15.29363279 236.88812378 9.08747758 231.15972041 2.875 225.4375 C-4.64478893 218.51113461 -12.14086305 211.5607884 -19.60888672 204.57861328 C-24.38808982 200.11465779 -29.20401093 195.6932427 -34.03125 191.28125 C-38.23530878 187.42752945 -42.39356185 183.52468356 -46.55859375 179.62890625 C-50.3949192 176.04362869 -54.2491129 172.47997746 -58.125 168.9375 C-63.30380731 164.20418149 -68.43470601 159.42155276 -73.55859375 154.62890625 C-77.3949192 151.04362869 -81.2491129 147.47997746 -85.125 143.9375 C-89.65236209 139.79958841 -94.14561351 135.62727342 -98.625 131.4375 C-104.07329689 126.34181694 -109.5529538 121.28372795 -115.05859375 116.25 C-118.63667596 112.9737408 -122.19426831 109.67548111 -125.75 106.375 C-126.65697632 105.53376587 -126.65697632 105.53376587 -127.58227539 104.67553711 C-129.79188584 102.6226949 -131.99213155 100.57036845 -134.125 98.4375 C-133.45855469 97.91542969 -132.79210937 97.39335937 -132.10546875 96.85546875 C-125.95705311 91.94533542 -120.39092771 86.87157132 -114.92578125 81.2109375 C-112.11436481 78.42696864 -109.19179413 75.84618566 -106.2019043 73.25830078 C-102.84794605 70.31791984 -99.61579337 67.25139855 -96.375 64.1875 C-90.63685663 58.78513096 -84.86564591 53.42490086 -79.046875 48.109375 C-75.91855818 45.24872165 -72.80157267 42.37613414 -69.6875 39.5 C-69.14786621 39.00234131 -68.60823242 38.50468262 -68.05224609 37.99194336 C-65.3054106 35.45756802 -62.56519238 32.91658595 -59.8359375 30.36328125 C-57.13804413 27.84270099 -54.4225476 25.34271866 -51.68945312 22.86035156 C-50.18770585 21.49453023 -48.69520089 20.11856766 -47.203125 18.7421875 C-33.74285897 6.84622265 -18.05578792 -0.17389425 0 0 Z " fill="#9A9A9A" transform="translate(388.125,167.5625)"/>
<path d="M0 0 C7.71574017 5.72835255 12.31253233 13.69931575 15.3203125 22.72265625 C16.238449 34.86915066 15.09653723 46.21018033 7 55.91796875 C-0.88929975 64.39437918 -9.23175699 69.74857399 -21.08032227 70.26367188 C-32.97241464 70.37853349 -42.02599266 67.1355247 -50.6796875 58.72265625 C-59.93318419 47.87001158 -61.73429853 37.63128631 -60.89111328 23.73535156 C-60.44473915 19.48603482 -59.03825776 16.23495438 -56.6796875 12.72265625 C-56.23238281 12.03042969 -55.78507813 11.33820313 -55.32421875 10.625 C-42.04641554 -8.41957029 -19.43943752 -12.40102049 0 0 Z " fill="#BBBCBC" transform="translate(213.6796875,94.27734375)"/>
<path d="M0 0 C4.22816763 1.39148084 5.09564241 3.37291623 7.26171875 7.19921875 C8.24205078 8.89111328 8.24205078 8.89111328 9.2421875 10.6171875 C14.67887829 20.69071479 14.67887829 20.69071479 14.07421875 26.01171875 C12.07421875 28.01171875 12.07421875 28.01171875 9.32421875 28.57421875 C5.21004169 27.86214964 4.13963779 26.57404898 1.66796875 23.33984375 C-7.57849618 9.83275282 -7.57849618 9.83275282 -7.05078125 4.88671875 C-5.53890119 1.02302527 -4.16305329 0.01667445 0 0 Z " fill="#BCBDBD" transform="translate(217.92578125,164.98828125)"/>
<path d="M0 0 C4.48984857 1.06132083 7.74175186 2.83880409 11.61328125 5.2734375 C12.28037109 5.67304688 12.94746094 6.07265625 13.63476562 6.484375 C16.76733086 8.40627173 18.73731385 9.8032364 20.80078125 12.8984375 C21.15320487 15.71782647 21.14724082 17.28703827 19.73828125 19.7734375 C16.59690955 21.59745978 14.28660472 20.65288426 10.80078125 19.8984375 C7.90418365 18.64429784 5.20973491 17.11746782 2.48828125 15.5234375 C1.77349609 15.12382812 1.05871094 14.72421875 0.32226562 14.3125 C-3.10988224 12.34572724 -4.94837531 11.27470266 -7.19921875 7.8984375 C-7.01171875 4.8359375 -7.01171875 4.8359375 -6.19921875 1.8984375 C-3.19921875 -0.1015625 -3.19921875 -0.1015625 0 0 Z " fill="#BCBDBD" transform="translate(237.19921875,146.1015625)"/>
<path d="M0 0 C2 1.125 2 1.125 3 3 C3.25 5.75 3.25 5.75 2 9 C-3.72773446 14.85445425 -11.19903771 19.37765304 -19.375 20.4375 C-22 20 -22 20 -23.875 18.8125 C-25.40846895 16.34191113 -25.34868408 14.87126272 -25 12 C-19.19408767 5.52153518 -8.91711359 -1.42673817 0 0 Z " fill="#BCBDBD" transform="translate(255,85)"/>
<path d="M0 0 C0.9075 0.28875 1.815 0.5775 2.75 0.875 C4.60228347 4.57956693 3.83133324 8.05462927 2.75 11.875 C1.53623533 14.64056713 0.12348333 17.2543662 -1.375 19.875 C-1.74093262 20.54619873 -2.10686523 21.21739746 -2.48388672 21.90893555 C-4.72218896 25.61740189 -5.58143511 26.69279303 -9.93359375 27.87890625 C-13.25 27.875 -13.25 27.875 -15.1875 26.8125 C-16.74191206 23.97798389 -16.53513086 22.09772908 -16.25 18.875 C-15.26243912 16.19294357 -13.94719891 13.74593844 -12.5625 11.25 C-12.22283203 10.59515625 -11.88316406 9.9403125 -11.53320312 9.265625 C-8.86180975 4.33228547 -6.14094245 -0.23619009 0 0 Z " fill="#BCBDBD" transform="translate(166.25,165.125)"/>
<path d="M0 0 C4.49947001 0.88514164 4.93078088 1.63980417 7.5 5.25 C8.63474323 7.06456687 9.74041023 8.89772608 10.8125 10.75 C11.25078125 11.46414062 11.6890625 12.17828125 12.140625 12.9140625 C14.84460335 17.69362987 15.20242244 21.29108587 14.8125 26.75 C11.83038442 28.24105779 10.12715295 28.25994661 6.8125 27.75 C0.98039459 22.41424398 -3.28673727 15.07141391 -6.1875 7.75 C-5.87270861 2.99464069 -4.78294461 1.12539873 0 0 Z " fill="#BCBDBD" transform="translate(155.1875,58.25)"/>
<path d="M0 0 C1.8125 1.125 1.8125 1.125 3 3 C3.5625 5.875 3.5625 5.875 3 9 C-2.02874323 14.60345674 -11.28903039 20.54473823 -18.7890625 21.26953125 C-21 21 -21 21 -22.8125 19.875 C-24.59827089 17.05536176 -24.53312947 15.26541798 -24 12 C-20.37944339 8.66989849 -16.24432311 6.19864795 -12 3.75 C-11.09507812 3.20472656 -11.09507812 3.20472656 -10.171875 2.6484375 C-6.65488727 0.61470112 -4.08016113 -0.57136906 0 0 Z " fill="#BCBDBD" transform="translate(148,146)"/>
<path d="M0 0 C1.9375 1.0625 1.9375 1.0625 3 3 C2.65703668 8.67639297 0.99095896 12.5042185 -1.875 17.25 C-2.22691406 17.86101562 -2.57882813 18.47203125 -2.94140625 19.1015625 C-6.4070264 25.00213509 -6.4070264 25.00213509 -9 27 C-12.14485925 27.39310741 -14.13281671 27.47555213 -16.9375 25.9375 C-18.65354513 22.80824122 -17.72249017 20.42397515 -17 17 C-15.90645005 14.4556083 -14.55524052 12.11835527 -13.125 9.75 C-12.77308594 9.13898438 -12.42117187 8.52796875 -12.05859375 7.8984375 C-6.91209001 -0.86401125 -6.91209001 -0.86401125 0 0 Z " fill="#BCBDBD" transform="translate(229,59)"/>
<path d="M0 0 C1.10923828 0.00064453 2.21847656 0.00128906 3.36132812 0.00195312 C5.09866211 0.02612305 5.09866211 0.02612305 6.87109375 0.05078125 C8.03318359 0.04755859 9.19527344 0.04433594 10.39257812 0.04101562 C19.04167429 0.09636179 19.04167429 0.09636179 21.30859375 2.36328125 C21.68359375 5.80078125 21.68359375 5.80078125 21.30859375 9.36328125 C17.62146354 13.02562669 14.27699713 12.77917946 9.33203125 12.82226562 C8.33429688 12.81517578 7.3365625 12.80808594 6.30859375 12.80078125 C4.81199219 12.83075195 4.81199219 12.83075195 3.28515625 12.86132812 C-3.98879152 12.85645282 -3.98879152 12.85645282 -7.3515625 10.49609375 C-9.02162544 7.83762621 -9.24495644 6.44734659 -8.69140625 3.36328125 C-6.24024266 -0.0460784 -4.04645438 -0.01183829 0 0 Z " fill="#BBBCBC" transform="translate(122.69140625,119.63671875)"/>
<path d="M0 0 C2.42116196 1.21196767 4.73117819 2.45029606 7.0625 3.8125 C7.67416016 4.15603516 8.28582031 4.49957031 8.91601562 4.85351562 C12.41519088 6.86979715 15.42460041 8.86775725 18 12 C18.375 15.125 18.375 15.125 18 18 C16 20 16 20 12.89453125 20.3984375 C7.98058564 19.89570686 4.85715688 18.14457024 0.6875 15.625 C-0.02728516 15.2125 -0.74207031 14.8 -1.47851562 14.375 C-4.28799014 12.73327125 -6.68887748 11.31112252 -9 9 C-9.375 5.5625 -9.375 5.5625 -9 2 C-6.07876843 -1.46220038 -4.13920828 -1.18510852 0 0 Z " fill="#BCBDBD" transform="translate(133,85)"/>
<path d="M0 0 C3.4375 0.875 3.4375 0.875 5.4375 3.875 C5.87178132 7.50636393 5.76170574 11.15796717 5.75 14.8125 C5.76611328 15.81474609 5.78222656 16.81699219 5.79882812 17.84960938 C5.79947266 18.81576172 5.80011719 19.78191406 5.80078125 20.77734375 C5.80525269 22.09980103 5.80525269 22.09980103 5.80981445 23.44897461 C5.35689807 26.40020743 4.53524973 27.76640452 2.4375 29.875 C-1.125 30.3125 -1.125 30.3125 -4.5625 29.875 C-7.67746916 25.20254625 -6.89100857 20.36914246 -6.875 14.875 C-6.89111328 13.76898438 -6.90722656 12.66296875 -6.92382812 11.5234375 C-6.92447266 10.46382812 -6.92511719 9.40421875 -6.92578125 8.3125 C-6.92876221 7.34183594 -6.93174316 6.37117188 -6.93481445 5.37109375 C-6.5625 2.875 -6.5625 2.875 -5.26245117 1.02734375 C-3.5625 -0.125 -3.5625 -0.125 0 0 Z " fill="#BCBDBD" transform="translate(191.5625,49.125)"/>
<path d="M0 0 C1.10923828 0.00064453 2.21847656 0.00128906 3.36132812 0.00195312 C5.09866211 0.02612305 5.09866211 0.02612305 6.87109375 0.05078125 C8.03318359 0.04755859 9.19527344 0.04433594 10.39257812 0.04101562 C19.04167429 0.09636179 19.04167429 0.09636179 21.30859375 2.36328125 C21.87312639 8.57314034 21.87312639 8.57314034 20.09716797 11.05883789 C16.49870518 13.6832696 11.72185532 12.83113574 7.43359375 12.80078125 C6.43972656 12.82076172 5.44585937 12.84074219 4.421875 12.86132812 C-0.09696206 12.85830347 -2.90531074 12.82717465 -6.85546875 10.49609375 C-8.69140625 8.36328125 -8.69140625 8.36328125 -9.19140625 5.80078125 C-8.09449642 0.45334581 -5.0213176 -0.01469034 0 0 Z " fill="#BCBDBD" transform="translate(245.69140625,119.63671875)"/>
<path d="M0 0 C2.6767478 0.96088382 3.70029824 1.6529762 5.4375 3.875 C5.82568359 6.17163086 5.82568359 6.17163086 5.8359375 8.83984375 C5.83980469 9.80470703 5.84367188 10.76957031 5.84765625 11.76367188 C5.83605469 12.76978516 5.82445312 13.77589844 5.8125 14.8125 C5.82410156 15.81474609 5.83570313 16.81699219 5.84765625 17.84960938 C5.84378906 18.81576172 5.83992187 19.78191406 5.8359375 20.77734375 C5.83255371 21.65898193 5.82916992 22.54062012 5.82568359 23.44897461 C5.35487369 26.39138845 4.53013608 27.76882227 2.4375 29.875 C-1.125 30.3125 -1.125 30.3125 -4.5625 29.875 C-7.67765441 25.20226839 -6.93109467 20.37077036 -6.9375 14.875 C-6.96199219 13.76898438 -6.98648438 12.66296875 -7.01171875 11.5234375 C-7.01558594 10.46382812 -7.01945313 9.40421875 -7.0234375 8.3125 C-7.03165527 7.34183594 -7.03987305 6.37117187 -7.04833984 5.37109375 C-6.5625 2.875 -6.5625 2.875 -4.69384766 1.02734375 C-2.5625 -0.125 -2.5625 -0.125 0 0 Z " fill="#BCBDBD" transform="translate(191.5625,172.125)"/>
</svg>
